<svg width="400" height="189" viewBox="0 0 400 189" fill="none" xmlns="http://www.w3.org/2000/svg">
<path d="M67.7041 55.3867C67.3721 48.082 65.1585 42.4928 61.0635 38.6191C56.9684 34.6348 51.9326 32.2552 45.9561 31.4805L46.7861 27.1641C49.6637 28.4922 53.3161 29.5436 57.7432 30.3184C62.1702 31.0931 67.04 31.7018 72.3525 32.1445C77.7757 32.4766 83.4202 32.6426 89.2861 32.6426C95.2627 32.6426 101.129 32.5319 106.884 32.3105C112.75 31.9785 118.339 31.5358 123.651 30.9824C129.075 30.429 133.944 29.765 138.261 28.9902C137.818 31.8678 137.32 35.1328 136.767 38.7852C136.324 42.4375 135.937 46.0898 135.604 49.7422C135.272 53.3945 135.106 56.9362 135.106 60.3672C135.106 63.6875 135.383 66.5651 135.937 69L132.616 69.498C131.067 63.5215 129.185 58.4303 126.972 54.2246C124.869 49.9082 121.991 46.5879 118.339 44.2637C114.687 41.8288 110.093 40.4453 104.56 40.1133C99.0257 39.7812 92.1084 40.5007 83.8076 42.2715C83.2542 51.1257 82.8115 58.9837 82.4795 65.8457C82.1475 72.7077 81.9814 79.4036 81.9814 85.9336C87.2939 85.1589 91.6104 84.1628 94.9307 82.9453C98.3617 81.7279 101.129 80.2891 103.231 78.6289C105.334 76.8581 106.939 74.8105 108.046 72.4863C109.263 70.0514 110.37 67.1738 111.366 63.8535L115.517 64.6836C114.521 68.8893 113.856 72.763 113.524 76.3047C113.192 79.8464 112.971 83.3327 112.86 86.7637C112.86 90.1947 112.971 93.681 113.192 97.2227C113.414 100.654 113.635 104.306 113.856 108.18L110.37 107.516C110.149 102.867 109.097 99.3809 107.216 97.0566C105.334 94.6217 103.01 93.0169 100.243 92.2422C97.4762 91.3568 94.488 91.0801 91.2783 91.4121C88.0687 91.7441 84.9697 92.2422 81.9814 92.9062C82.0921 98.3294 82.3135 103.919 82.6455 109.674C82.9775 115.318 83.4756 121.682 84.1396 128.766C84.4717 132.971 85.0804 136.458 85.9658 139.225C86.9619 141.992 88.124 144.26 89.4521 146.031C90.7803 147.691 92.2191 148.964 93.7686 149.85C95.4287 150.624 97.0889 151.233 98.749 151.676V155.328C97.1995 155.107 94.5986 154.885 90.9463 154.664C87.4046 154.443 83.5309 154.387 79.3252 154.498C75.1195 154.609 70.8584 154.941 66.542 155.494C62.3363 156.048 58.7393 156.988 55.751 158.316L54.5889 154.83C57.3558 153.613 59.7354 152.34 61.7275 151.012C63.7197 149.573 65.3799 147.913 66.708 146.031C68.0361 144.039 68.9769 141.715 69.5303 139.059C70.1943 136.292 70.5264 132.971 70.5264 129.098C70.5264 126.552 70.471 123.287 70.3604 119.303C70.2497 115.318 70.0837 111.002 69.8623 106.354C69.7516 101.705 69.5856 96.8906 69.3643 91.9102C69.1429 86.9297 68.9215 82.1706 68.7002 77.6328C68.4788 72.9844 68.2575 68.7233 68.0361 64.8496C67.9255 60.9759 67.8148 57.8216 67.7041 55.3867ZM176.345 135.406C175.238 135.406 174.408 135.074 173.854 134.41C173.412 133.746 173.19 133.027 173.19 132.252C173.19 131.477 173.412 130.813 173.854 130.26C174.297 129.596 174.961 129.319 175.847 129.43C175.183 128.766 174.076 128.489 172.526 128.6C171.309 128.821 170.147 129.651 169.04 131.09C168.044 132.418 167.657 134.023 167.878 135.904C167.989 137.896 168.819 139.778 170.368 141.549C171.918 143.32 174.076 144.15 176.843 144.039C178.282 144.039 179.665 143.652 180.993 142.877C182.321 142.102 183.483 141.106 184.479 139.889C185.476 138.561 186.25 137.066 186.804 135.406C187.357 133.746 187.634 132.031 187.634 130.26C187.523 128.378 187.08 126.552 186.306 124.781C185.531 122.9 184.424 121.24 182.985 119.801C181.657 118.251 179.997 117.034 178.005 116.148C176.013 115.152 173.744 114.654 171.198 114.654C166.107 114.654 162.123 116.204 159.245 119.303C156.368 122.402 155.039 126.939 155.261 132.916C155.371 135.904 156.146 138.948 157.585 142.047C159.024 145.035 161.016 147.747 163.562 150.182C166.218 152.617 169.317 154.553 172.858 155.992C176.511 157.542 180.495 158.316 184.812 158.316C188.796 158.316 192.282 157.542 195.271 155.992C198.259 154.443 200.804 152.451 202.907 150.016C205.01 147.47 206.56 144.592 207.556 141.383C208.662 138.173 209.216 134.853 209.216 131.422C209.216 129.208 208.828 126.773 208.054 124.117C207.39 121.461 206.117 118.639 204.235 115.65C202.465 112.662 200.085 109.508 197.097 106.188C194.108 102.867 190.345 99.4915 185.808 96.0605C181.381 92.6296 177.175 89.4199 173.19 86.4316C169.317 83.4434 165.886 80.5104 162.897 77.6328C160.02 74.6445 157.696 71.5456 155.925 68.3359C154.265 65.0156 153.435 61.3079 153.435 57.2129C153.435 53.1178 154.154 49.1888 155.593 45.4258C157.142 41.5521 159.356 38.1764 162.233 35.2988C165.222 32.4212 168.874 30.1523 173.19 28.4922C177.507 26.7214 182.432 25.9466 187.966 26.168C191.175 26.2786 194.219 26.832 197.097 27.8281C200.085 28.8242 202.852 29.8203 205.397 30.8164C208.054 31.8125 210.544 32.6426 212.868 33.3066C215.192 33.86 217.351 33.7493 219.343 32.9746C220.228 32.6426 221.003 32.1445 221.667 31.4805C222.22 30.9271 222.774 30.2077 223.327 29.3223C223.881 28.4368 224.268 27.2194 224.489 25.6699L229.138 26.002C228.806 28.1048 228.418 30.7611 227.976 33.9707C227.533 37.1803 227.201 40.556 226.979 44.0977C226.869 47.5286 226.924 50.9596 227.146 54.3906C227.367 57.7109 227.92 60.5885 228.806 63.0234L224.489 64.0195C223.493 60.9206 222.331 57.8216 221.003 54.7227C219.785 51.513 218.291 48.5801 216.521 45.9238C214.86 43.2676 212.924 40.888 210.71 38.7852C208.496 36.6823 205.896 35.0221 202.907 33.8047C200.251 32.8086 197.539 32.1445 194.772 31.8125C192.116 31.3698 189.515 31.5358 186.97 32.3105C184.535 33.0853 182.155 34.4688 179.831 36.4609C177.618 38.4531 175.57 41.3307 173.688 45.0938C171.807 48.8568 171.032 53.0625 171.364 57.7109C171.807 62.3594 173.08 66.3991 175.183 69.8301C176.4 72.0436 177.839 74.1465 179.499 76.1387C181.27 78.0202 183.096 79.8464 184.978 81.6172C186.859 83.2773 188.796 84.9375 190.788 86.5977C192.891 88.2578 194.938 89.918 196.931 91.5781C200.804 95.0091 204.401 98.4401 207.722 101.871C211.042 105.302 213.864 108.844 216.188 112.496C218.623 116.038 220.505 119.745 221.833 123.619C223.161 127.382 223.825 131.256 223.825 135.24C223.825 139.335 222.829 143.32 220.837 147.193C218.845 151.067 216.078 154.498 212.536 157.486C209.105 160.475 205.065 162.854 200.417 164.625C195.879 166.507 191.065 167.447 185.974 167.447C180.993 167.447 176.289 166.562 171.862 164.791C167.546 163.131 163.783 160.696 160.573 157.486C157.364 154.387 154.818 150.735 152.937 146.529C151.055 142.213 150.114 137.454 150.114 132.252C150.114 128.157 150.723 124.726 151.94 121.959C153.158 119.081 154.763 116.757 156.755 114.986C158.747 113.215 161.016 111.943 163.562 111.168C166.107 110.393 168.708 110.006 171.364 110.006C174.131 110.006 176.787 110.449 179.333 111.334C181.989 112.109 184.313 113.382 186.306 115.152C188.298 116.923 189.847 119.192 190.954 121.959C192.172 124.726 192.78 127.991 192.78 131.754C192.78 134.41 192.172 136.79 190.954 138.893C189.847 140.885 188.409 142.6 186.638 144.039C184.867 145.367 182.93 146.363 180.827 147.027C178.835 147.691 176.953 147.968 175.183 147.857C173.412 147.747 171.807 147.304 170.368 146.529C168.929 145.755 167.657 144.814 166.55 143.707C165.554 142.6 164.779 141.438 164.226 140.221C163.672 138.893 163.396 137.62 163.396 136.402C163.506 135.296 163.728 134.078 164.06 132.75C164.502 131.422 165.166 130.204 166.052 129.098C166.937 127.88 168.044 126.939 169.372 126.275C170.7 125.501 172.305 125.113 174.187 125.113C175.957 125.113 177.396 125.667 178.503 126.773C179.61 127.77 180.218 129.042 180.329 130.592C180.55 131.92 180.218 133.082 179.333 134.078C178.558 134.964 177.562 135.406 176.345 135.406ZM268.384 115.65C263.514 116.093 258.755 116.038 254.106 115.484C249.569 114.82 245.529 113.603 241.987 111.832C238.335 109.951 235.402 107.46 233.188 104.361C230.864 101.152 229.536 97.2227 229.204 92.5742C228.872 88.2578 229.591 84.6055 231.362 81.6172C233.022 78.6289 235.181 76.36 237.837 74.8105C240.493 73.2611 243.481 72.3757 246.802 72.1543C250.011 71.8223 253 72.2096 255.767 73.3164C258.644 74.3125 261.079 76.028 263.071 78.4629C265.063 80.7871 266.17 83.7201 266.392 87.2617C266.724 92.3529 265.672 96.0052 263.237 98.2188C260.802 100.432 257.869 101.594 254.438 101.705C251.007 101.816 248.075 101.096 245.64 99.5469C243.094 97.9974 241.711 95.4518 241.489 91.9102C241.379 90.1393 241.6 88.6452 242.153 87.4277C242.596 86.0996 243.205 85.0482 243.979 84.2734C244.644 83.388 245.474 82.7793 246.47 82.4473C247.466 82.0046 248.407 81.7832 249.292 81.7832C251.174 81.6725 252.668 82.1152 253.774 83.1113C254.992 83.9967 255.711 85.3802 255.933 87.2617C256.043 89.0326 255.545 90.3053 254.438 91.0801C253.332 91.7441 252.059 91.7995 250.62 91.2461C249.624 90.9141 249.071 90.1393 248.96 88.9219C248.739 87.7044 248.905 86.5977 249.458 85.6016C248.462 85.8229 247.632 86.321 246.968 87.0957C246.304 87.8704 245.972 89.0326 245.972 90.582C245.972 92.5742 246.525 94.2897 247.632 95.7285C248.739 97.0566 250.841 97.61 253.94 97.3887C255.49 97.3887 256.707 97.0013 257.593 96.2266C258.589 95.4518 259.364 94.5664 259.917 93.5703C260.47 92.5742 260.802 91.5781 260.913 90.582C261.134 89.4753 261.245 88.5898 261.245 87.9258C261.245 87.2617 261.079 86.2656 260.747 84.9375C260.526 83.6094 259.917 82.3366 258.921 81.1191C258.035 79.791 256.707 78.6289 254.937 77.6328C253.276 76.6367 251.007 76.028 248.13 75.8066C245.142 75.696 242.707 76.194 240.825 77.3008C238.944 78.2969 237.45 79.625 236.343 81.2852C235.236 82.9453 234.461 84.7161 234.019 86.5977C233.576 88.4792 233.41 90.1393 233.521 91.5781C233.631 94.4557 234.517 97.0566 236.177 99.3809C237.726 101.705 240.106 103.642 243.315 105.191C246.414 106.63 250.288 107.626 254.937 108.18C259.696 108.733 265.174 108.622 271.372 107.848C273.032 103.642 274.637 99.2702 276.187 94.7324C277.736 90.1947 279.175 85.7122 280.503 81.2852C281.831 76.8581 282.993 72.5417 283.989 68.3359C284.985 64.1302 285.705 60.2565 286.147 56.7148C287.144 48.3034 286.313 41.7181 283.657 36.959C281.001 32.0892 277.072 29.5436 271.87 29.3223L272.534 25.0059C274.526 25.3379 277.349 25.7253 281.001 26.168C284.764 26.6107 288.859 26.998 293.286 27.3301C297.713 27.5514 302.14 27.6621 306.567 27.6621C310.994 27.5514 314.979 27.1087 318.521 26.334L318.687 28.9902C317.248 29.4329 315.92 29.8757 314.702 30.3184C313.485 30.7611 312.489 31.3698 311.714 32.1445C310.939 32.8086 310.386 33.7493 310.054 34.9668C309.722 36.0736 309.777 37.5124 310.22 39.2832C310.662 41.1647 311.382 44.7617 312.378 50.0742C313.374 55.3867 314.591 61.64 316.03 68.834C317.469 76.028 319.129 83.7754 321.011 92.0762C322.892 100.377 324.94 108.346 327.153 115.982C329.367 123.619 331.58 130.37 333.794 136.236C336.118 142.102 338.442 146.917 340.767 150.68C343.091 154.332 345.47 156.822 347.905 158.15C350.34 159.589 352.886 159.7 355.542 158.482C356.87 157.708 358.032 156.656 359.028 155.328C359.914 154.111 360.688 152.561 361.353 150.68C362.017 148.798 362.404 146.419 362.515 143.541L365.005 143.043C365.448 144.814 365.558 147.083 365.337 149.85C365.116 152.506 364.507 155.162 363.511 157.818C362.515 160.475 361.021 162.799 359.028 164.791C357.036 166.894 354.491 168.111 351.392 168.443C348.846 168.775 345.968 168.665 342.759 168.111C339.66 167.558 336.506 165.953 333.296 163.297C330.197 160.641 327.153 156.546 324.165 151.012C321.287 145.478 318.797 137.896 316.694 128.268C316.141 125.501 315.588 122.789 315.034 120.133C314.481 117.366 313.927 114.71 313.374 112.164C310.164 112.385 305.793 112.662 300.259 112.994C294.725 113.326 288.97 113.714 282.993 114.156C281.333 121.129 280.06 127.327 279.175 132.75C278.621 136.07 278.345 138.782 278.345 140.885C278.455 142.988 278.787 144.703 279.341 146.031C279.894 147.249 280.78 148.245 281.997 149.02C283.325 149.794 284.985 150.514 286.978 151.178L286.812 154.664C284.93 154.221 282.052 153.945 278.179 153.834C274.305 153.723 270.155 153.779 265.728 154C261.411 154.332 257.095 154.83 252.778 155.494C248.573 156.269 245.252 157.32 242.817 158.648L241.489 153.004C243.813 152.008 245.806 151.344 247.466 151.012C249.015 150.569 250.399 150.016 251.616 149.352C252.834 148.577 253.996 147.47 255.103 146.031C256.209 144.482 257.371 142.213 258.589 139.225C259.585 137.011 260.913 133.857 262.573 129.762C264.344 125.667 266.336 120.963 268.55 115.65H268.384ZM300.923 45.9238C300.037 49.4655 298.931 53.5605 297.603 58.209C296.274 62.8574 294.891 67.8379 293.452 73.1504C292.013 78.3522 290.519 83.7754 288.97 89.4199C287.531 95.0645 286.147 100.598 284.819 106.021C290.021 105.247 294.891 104.638 299.429 104.195C304.077 103.753 308.117 103.421 311.548 103.199C309.002 91.2461 306.789 80.5104 304.907 70.9922C303.026 61.474 301.698 53.1178 300.923 45.9238Z" fill="white"/>
<path d="M26.5 113L29.5309 124.747L39.3393 124.747L31.4042 132.007L34.4351 143.753L26.5 136.493L18.5649 143.753L21.5958 132.007L13.6607 124.747L23.4691 124.747L26.5 113Z" fill="white"/>
</svg>
